HIERARCHY
ROOT Hips
{
	OFFSET 0.00 0.00 0.00
	CHANNELS 6 Xposition Yposition Zposition Xrotation Yrotation Zrotation
	JOINT Spine
	{
		OFFSET 0.00000 0.84964 1.27446
		CHANNELS 3 Xrotation Yrotation Zrotation
		JOINT Spine1
		{
			OFFSET 0.00000 0.29508 1.67346
			CHANNELS 3 Xrotation Yrotation Zrotation
			JOINT Spine2
			{
				OFFSET 0.00000 0.14810 1.69281
				CHANNELS 3 Xrotation Yrotation Zrotation
				JOINT Spine3
				{
					OFFSET 0.00000 0.00000 1.69928
					CHANNELS 3 Xrotation Yrotation Zrotation
					JOINT Neck
					{
						OFFSET 0.00000 -0.63723 4.46061
						CHANNELS 3 Xrotation Yrotation Zrotation
						JOINT Head
						{
							OFFSET 0.00000 -0.40573 2.30101
							CHANNELS 3 Xrotation Yrotation Zrotation
							End Site
							{
								OFFSET 0.00000 0.00000 2.75071
							}
						}
					}
					JOINT RightShoulder
					{
						OFFSET -0.72014 -1.20022 3.88874
						CHANNELS 3 Xrotation Yrotation Zrotation
						JOINT RightArm
						{
							OFFSET -3.57668 0.00000 0.00000
							CHANNELS 3 Xrotation Yrotation Zrotation
							JOINT RightForeArm
							{
								OFFSET -5.92485 0.00000 0.00000
								CHANNELS 3 Xrotation Yrotation Zrotation
								JOINT RightHand
								{
									OFFSET -6.63013 0.00000 0.00000
									CHANNELS 3 Xrotation Yrotation Zrotation
									JOINT RightHandEnd
									{
										OFFSET -1.65321 0.00000 0.00000
										CHANNELS 3 Xrotation Yrotation Zrotation
										End Site
										{
											OFFSET -1.65321 0.00000 0.00000
										}
									}
									JOINT RightHandThumb1
									{
										OFFSET -0.66129 -1.10214 -0.44086
										CHANNELS 3 Yrotation Xrotation Zrotation
										End Site
										{
											OFFSET -1.59688 -0.42788 0.00000
										}
									}
								}
							}
						}
					}
					JOINT LeftShoulder
					{
						OFFSET 0.72014 -1.20022 3.88874
						CHANNELS 3 Xrotation Yrotation Zrotation
						JOINT LeftArm
						{
							OFFSET 3.57668 0.00000 0.00000
							CHANNELS 3 Xrotation Yrotation Zrotation
							JOINT LeftForeArm
							{
								OFFSET 5.92485 0.00000 0.00000
								CHANNELS 3 Xrotation Yrotation Zrotation
								JOINT LeftHand
								{
									OFFSET 6.63013 0.00000 0.00000
									CHANNELS 3 Xrotation Yrotation Zrotation
									JOINT LeftHandEnd
									{
										OFFSET 1.65321 0.00000 0.00000
										CHANNELS 3 Xrotation Yrotation Zrotation
										End Site
										{
											OFFSET 1.65321 0.00000 0.00000
										}
									}
									JOINT LeftHandThumb1
									{
										OFFSET 0.66129 -1.10214 -0.44086
										CHANNELS 3 Yrotation Xrotation Zrotation
										End Site
										{
											OFFSET 1.59688 -0.42788 0.00000
										}
									}
								}
							}
						}
					}
				}
			}
		}
	}
	JOINT RightUpLeg
	{
		OFFSET -2.13640 0.00000 -0.62412
		CHANNELS 3 Xrotation Yrotation Zrotation
		JOINT RightLeg
		{
			OFFSET 0.00000 0.00000 -11.49360
			CHANNELS 3 Xrotation Yrotation Zrotation
			JOINT RightFoot
			{
				OFFSET 0.00000 0.00000 -8.79036
				CHANNELS 3 Xrotation Yrotation Zrotation
				JOINT RightToeBase
				{
					OFFSET 0.00000 -3.94625 -1.43632
					CHANNELS 3 Xrotation Yrotation Zrotation
					End Site
					{
						OFFSET 0.00000 -1.72833 -0.00000
					}
				}
			}
		}
	}
	JOINT LeftUpLeg
	{
		OFFSET 2.13640 0.00000 -0.62412
		CHANNELS 3 Xrotation Yrotation Zrotation
		JOINT LeftLeg
		{
			OFFSET 0.00000 0.00000 -11.49360
			CHANNELS 3 Xrotation Yrotation Zrotation
			JOINT LeftFoot
			{
				OFFSET 0.00000 0.00000 -8.79036
				CHANNELS 3 Xrotation Yrotation Zrotation
				JOINT LeftToeBase
				{
					OFFSET 0.00000 -3.94625 -1.43632
					CHANNELS 3 Xrotation Yrotation Zrotation
					End Site
					{
						OFFSET 0.00000 -1.72833 -0.00000
					}
				}
			}
		}
	}
}
MOTION
Frames: 10
Frame Time: 0.008342
 1.4290 99.6859 22.5033 7.9691 5.0962 6.7049 -2.0964 -10.9151 -1.8400 -0.0911 -3.8815 -1.4046 5.3487 -5.6463 0.3129 1.6055 7.1839 -2.2417 -11.2251 14.7652 6.3747 0.4835 6.3386 2.8889 -4.9124 -21.3346 5.4292 17.9911 -46.4883 7.9570 0.0000 0.0000 18.5111 -11.5934 3.8791 5.9763 -0.0000 -0.0000 0.0000 -0.0000 -0.0000 -0.0000 -2.4540 26.6144 -2.1561 20.0377 46.8634 -18.0258 -0.0000 -0.0000 -34.9665 -6.9352 -14.9882 8.2648 -0.0000 -0.0000 -0.0000 0.0000 -0.0000 -0.0000 -29.4017 10.6283 -32.1687 43.6051 0.0000 0.0000 -23.4190 10.0753 0.8594 -0.1233 0.0000 -0.0000 4.5429 -3.4502 -4.2199 16.4015 0.0000 0.0000 -24.0904 -8.6512 -25.3647 -6.2383 0.0000 -0.0000
 1.4018 99.4820 22.5009 8.0811 5.3206 7.1662 -2.1915 -11.2876 -1.8475 -0.1215 -3.9202 -1.4179 5.4212 -5.5358 0.3303 1.6326 7.3501 -2.3137 -11.3409 14.7948 6.2915 0.4209 6.3722 2.7661 -4.8302 -21.4603 5.3906 18.7052 -46.6068 8.3195 0.0000 0.0000 18.3395 -11.3058 3.7401 5.8920 -0.0000 -0.0000 0.0000 -0.0000 -0.0000 -0.0000 -2.6704 26.5399 -2.2607 20.3150 46.8196 -18.5977 -0.0000 -0.0000 -35.7457 -6.9401 -14.9468 8.3101 0.0000 -0.0000 -0.0000 -0.0000 0.0000 0.0000 -30.2114 10.3496 -32.8680 41.7527 0.0000 0.0000 -23.1100 9.1317 2.3041 -0.3844 0.0000 -0.0000 4.8447 -3.8982 -4.0559 16.3306 0.0000 0.0000 -23.9903 -8.5880 -25.9331 -6.4931 0.0000 -0.0000
 1.3741 99.2708 22.4960 8.2331 5.5564 7.6258 -2.3387 -11.6410 -1.8643 -0.1681 -3.9450 -1.4306 5.4883 -5.4390 0.3065 1.6635 7.4875 -2.3785 -11.4469 14.7983 6.1999 0.3643 6.4056 2.6716 -4.7662 -21.6098 5.3336 19.4325 -46.6823 8.7043 0.0000 0.0000 18.1316 -11.0857 3.6487 5.7538 0.0000 -0.0000 -0.0000 -0.0000 -0.0000 -0.0000 -2.8635 26.4647 -2.3569 20.6120 46.7957 -19.1326 -0.0000 -0.0000 -36.5455 -6.9650 -14.8781 8.3457 0.0000 0.0000 0.0000 0.0000 0.0000 0.0000 -30.9584 10.0292 -33.6919 39.6979 0.0000 0.0000 -22.7851 8.2806 3.7627 -0.6402 0.0000 -0.0000 5.1051 -4.3543 -3.9246 16.2857 0.0000 0.0000 -23.8549 -8.5053 -26.4432 -6.7675 0.0000 -0.0000
 1.3461 99.0521 22.4883 8.4211 5.7906 8.1007 -2.5369 -11.9584 -1.8918 -0.2298 -3.9525 -1.4427 5.5438 -5.3602 0.2242 1.6977 7.5901 -2.4368 -11.5404 14.7821 6.1012 0.3138 6.4395 2.6048 -4.7158 -21.7757 5.2612 20.1303 -46.7296 9.0825 0.0000 0.0000 17.8877 -10.9346 3.5875 5.5609 0.0000 0.0000 0.0000 0.0000 -0.0000 0.0000 -3.0156 26.3888 -2.4528 20.9208 46.7857 -19.6299 -0.0000 -0.0000 -37.3593 -7.0080 -14.7854 8.3649 -0.0000 0.0000 -0.0000 0.0000 0.0000 -0.0000 -31.6209 9.6870 -34.7063 37.4337 0.0000 0.0000 -22.4867 7.5467 5.2467 -0.8623 0.0000 -0.0000 5.3241 -4.8025 -3.8597 16.2706 0.0000 0.0000 -23.6637 -8.4163 -26.8743 -7.0674 0.0000 -0.0000
 1.3180 98.8251 22.4780 8.6338 6.0252 8.6088 -2.7840 -12.2430 -1.9400 -0.3020 -3.9333 -1.4522 5.5844 -5.3098 0.0725 1.7344 7.6580 -2.4881 -11.6203 14.7531 5.9993 0.2710 6.4741 2.5606 -4.6841 -21.9566 5.1694 20.7687 -46.7564 9.4269 0.0000 0.0000 17.6093 -10.8506 3.5343 5.3212 0.0000 0.0000 0.0000 0.0000 -0.0000 0.0000 -3.1228 26.3189 -2.5495 21.2475 46.7732 -20.0903 -0.0000 -0.0000 -38.1831 -7.0671 -14.6731 8.3681 -0.0000 0.0000 -0.0000 -0.0000 0.0000 -0.0000 -32.1671 9.3249 -35.9888 34.9522 0.0000 0.0000 -22.2286 6.9187 6.7982 -1.0304 0.0000 -0.0000 5.5060 -5.2450 -3.8861 16.2944 0.0000 0.0000 -23.4115 -8.3365 -27.2184 -7.3997 0.0000 -0.0000
 1.2896 98.5886 22.4650 8.8376 6.2656 9.1627 -3.0592 -12.4981 -2.0124 -0.3813 -3.8937 -1.4628 5.6156 -5.2874 -0.1510 1.7721 7.6910 -2.5333 -11.6860 14.7179 5.8950 0.2352 6.5092 2.5348 -4.6691 -22.1412 5.0586 21.3070 -46.7839 9.7088 0.0000 0.0000 17.3010 -10.8223 3.4725 5.0423 0.0000 -0.0000 -0.0000 0.0000 -0.0000 -0.0000 -3.1989 26.2526 -2.6452 21.6074 46.7552 -20.5125 -0.0000 -0.0000 -39.0108 -7.1359 -14.5458 8.3528 -0.0000 0.0000 0.0000 -0.0000 -0.0000 0.0000 -32.5478 8.9307 -37.6119 32.2554 0.0000 0.0000 -21.9929 6.3538 8.4843 -1.1333 0.0000 -0.0000 5.6832 -5.6941 -4.0111 16.3585 0.0000 0.0000 -23.1023 -8.2792 -27.4796 -7.7738 0.0000 -0.0000
 1.2611 98.3419 22.4490 8.9961 6.4915 9.7633 -3.3216 -12.7074 -2.0996 -0.4660 -3.8349 -1.4724 5.6311 -5.2885 -0.4517 1.8094 7.6796 -2.5696 -11.7320 14.6875 5.7927 0.2066 6.5421 2.5179 -4.6663 -22.3131 4.9322 21.7062 -46.8357 9.8956 0.0000 0.0000 16.9700 -10.8338 3.3854 4.7396 0.0000 -0.0000 -0.0000 0.0000 0.0000 0.0000 -3.2199 26.1874 -2.7479 22.0015 46.7221 -20.9185 -0.0000 -0.0000 -39.8317 -7.2124 -14.4171 8.3215 0.0000 -0.0000 -0.0000 0.0000 0.0000 0.0000 -32.7319 8.5106 -39.6031 29.3893 0.0000 0.0000 -21.7400 5.7862 10.3786 -1.1685 0.0000 -0.0000 5.9006 -6.1351 -4.2378 16.4547 0.0000 0.0000 -22.7396 -8.2579 -27.6593 -8.2024 0.0000 -0.0000
 1.2324 98.0843 22.4298 9.1043 6.6999 10.4013 -3.5729 -12.8677 -2.2013 -0.5530 -3.7557 -1.4808 5.6400 -5.3229 -0.8147 1.8471 7.6321 -2.5978 -11.7580 14.6695 5.6931 0.1844 6.5697 2.5018 -4.6677 -22.4609 4.7936 21.9285 -46.9299 9.9591 0.0000 0.0000 16.6297 -10.8673 3.2607 4.4187 0.0000 0.0000 0.0000 0.0000 -0.0000 -0.0000 -3.2018 26.1185 -2.8516 22.4549 46.6699 -21.3241 -0.0000 -0.0000 -40.6352 -7.2895 -14.2960 8.2737 -0.0000 -0.0000 -0.0000 -0.0000 0.0000 0.0000 -32.7352 8.0501 -41.9447 26.4180 0.0000 0.0000 -21.4003 5.1480 12.5283 -1.1396 0.0000 -0.0000 6.1665 -6.5697 -4.5497 16.5836 0.0000 0.0000 -22.3418 -8.2761 -27.7740 -8.6986 0.0000 -0.0000
 1.2027 97.8154 22.4068 9.1454 6.8890 11.0576 -3.7962 -12.9804 -2.3049 -0.6393 -3.6589 -1.4904 5.6467 -5.3930 -1.2220 1.8853 7.5534 -2.6217 -11.7618 14.6699 5.6000 0.1670 6.5879 2.4773 -4.6673 -22.5736 4.6484 21.9537 -47.0824 9.8835 0.0000 0.0000 16.2864 -10.9070 3.0909 4.0996 0.0000 -0.0000 0.0000 -0.0000 -0.0000 -0.0000 -3.1470 26.0419 -2.9535 22.9804 46.5906 -21.7438 -0.0000 -0.0000 -41.4155 -7.3615 -14.1916 8.2145 0.0000 0.0000 -0.0000 0.0000 0.0000 -0.0000 -32.5784 7.5324 -44.5561 23.4416 0.0000 0.0000 -20.8990 4.3902 14.9390 -1.0499 0.0000 -0.0000 6.5066 -7.0058 -4.9070 16.7400 0.0000 0.0000 -21.9319 -8.3267 -27.8531 -9.2744 0.0000 -0.0000
 1.1717 97.5352 22.3800 9.1344 7.0657 11.7015 -4.0089 -13.0553 -2.4044 -0.7262 -3.5575 -1.4942 5.6675 -5.4815 -1.6649 1.9210 7.4449 -2.6301 -11.7419 14.6961 5.5139 0.1519 6.5916 2.4363 -4.6616 -22.6435 4.5017 21.7635 -47.3035 9.6486 0.0000 0.0000 15.9519 -10.9356 2.8709 3.7941 -0.0000 0.0000 -0.0000 0.0000 0.0000 0.0000 -3.0654 25.9647 -3.0524 23.5918 46.4641 -22.1832 -0.0000 -0.0000 -42.1720 -7.4270 -14.1118 8.1516 0.0000 -0.0000 -0.0000 -0.0000 0.0000 -0.0000 -32.3340 6.9456 -47.2461 20.5930 0.0000 0.0000 -20.1701 3.5100 17.5185 -0.8980 0.0000 -0.0000 6.9104 -7.4527 -5.2660 16.9249 0.0000 0.0000 -21.5334 -8.3946 -27.9238 -9.9402 0.0000 -0.0000
